<?xml version="1.0" encoding="UTF-8" standalone="no"?>
<svg width="259px" height="30px" viewBox="0 0 259 30" version="1.1" xmlns="http://www.w3.org/2000/svg" xmlns:xlink="http://www.w3.org/1999/xlink">
    <!-- Generator: Sketch 41.2 (35397) - http://www.bohemiancoding.com/sketch -->
    <title>logo</title>
    <desc>Created with Sketch.</desc>
    <defs></defs>
    <g id="Page-1" stroke="none" stroke-width="1" fill="none" fill-rule="evenodd">
        <g id="logo">
            <path d="M16.794,14.0224138 L16.794,9.38586207 L0.162,9.38586207 L0.162,14.0224138 L5.643,14.0224138 L5.643,28.9655172 L11.286,28.9655172 L11.286,14.0224138 L16.794,14.0224138 Z M37.8328876,28.9655172 L37.8328876,9.38586207 L32.2168876,9.38586207 L32.2168876,17.1786207 L25.4938876,17.1786207 L25.4938876,9.38586207 L19.8778876,9.38586207 L19.8778876,28.9655172 L25.4938876,28.9655172 L25.4938876,21.6755172 L32.2168876,21.6755172 L32.2168876,28.9655172 L37.8328876,28.9655172 Z M57.8187752,13.8548276 L57.8187752,9.38586207 L42.3477752,9.38586207 L42.3477752,28.9655172 L58.0887752,28.9655172 L58.0887752,24.4965517 L47.9637752,24.4965517 L47.9637752,21.3962069 L56.9007752,21.3962069 L56.9007752,16.9272414 L47.9637752,16.9272414 L47.9637752,13.8548276 L57.8187752,13.8548276 Z" id="THE" fill="#FFFFFF"></path>
            <path d="M161.369,9.13448276 C156.644,9.13448276 153.539,11.5365517 153.539,15.3072414 C153.539,22.2062069 163.421,20.3348276 163.421,23.2955172 C163.421,24.1893103 162.665,24.6082759 161.477,24.6082759 C159.533,24.6082759 156.374,23.3234483 154.43,21.6196552 L152.324,26.0327586 C154.7,27.96 158.21,29.1331034 161.423,29.1331034 C165.662,29.1331034 169.226,27.15 169.226,22.9882759 C169.226,15.9217241 159.344,17.6255172 159.344,14.7486207 C159.344,14.0224138 159.965,13.6872414 160.91,13.6872414 C162.503,13.6872414 165.257,14.7206897 167.201,15.8658621 L169.28,11.3968966 C167.228,10.0282759 164.258,9.13448276 161.369,9.13448276 L161.369,9.13448276 Z M188.077888,13.8548276 L188.077888,9.38586207 L172.606888,9.38586207 L172.606888,28.9655172 L188.347888,28.9655172 L188.347888,24.4965517 L178.222888,24.4965517 L178.222888,21.3962069 L187.159888,21.3962069 L187.159888,16.9272414 L178.222888,16.9272414 L178.222888,13.8548276 L188.077888,13.8548276 Z M203.473775,28.9655172 L209.845775,28.9655172 L206.011775,22.5693103 C208.063775,21.3682759 209.197775,19.2455172 209.197775,16.3406897 C209.197775,11.8996552 206.281775,9.38586207 201.205775,9.38586207 L192.376775,9.38586207 L192.376775,28.9655172 L197.992775,28.9655172 L197.992775,23.6865517 L200.962775,23.6865517 L203.473775,28.9655172 Z M197.992775,19.2175862 L197.992775,13.8548276 L201.205775,13.8548276 C202.879775,13.8548276 203.851775,14.8044828 203.851775,16.5082759 C203.851775,18.267931 202.879775,19.2175862 201.205775,19.2175862 L197.992775,19.2175862 Z M218.896663,28.9655172 L218.896663,9.38586207 L213.280663,9.38586207 L213.280663,28.9655172 L218.896663,28.9655172 Z M238.88255,13.8548276 L238.88255,9.38586207 L223.41155,9.38586207 L223.41155,28.9655172 L239.15255,28.9655172 L239.15255,24.4965517 L229.02755,24.4965517 L229.02755,21.3962069 L237.96455,21.3962069 L237.96455,16.9272414 L229.02755,16.9272414 L229.02755,13.8548276 L238.88255,13.8548276 Z M250.957438,9.13448276 C246.232438,9.13448276 243.127438,11.5365517 243.127438,15.3072414 C243.127438,22.2062069 253.009438,20.3348276 253.009438,23.2955172 C253.009438,24.1893103 252.253438,24.6082759 251.065438,24.6082759 C249.121438,24.6082759 245.962438,23.3234483 244.018438,21.6196552 L241.912438,26.0327586 C244.288438,27.96 247.798438,29.1331034 251.011438,29.1331034 C255.250438,29.1331034 258.814438,27.15 258.814438,22.9882759 C258.814438,15.9217241 248.932438,17.6255172 248.932438,14.7486207 C248.932438,14.0224138 249.553438,13.6872414 250.498438,13.6872414 C252.091438,13.6872414 254.845438,14.7206897 256.789438,15.8658621 L258.868438,11.3968966 C256.816438,10.0282759 253.846438,9.13448276 250.957438,9.13448276 L250.957438,9.13448276 Z" id="SERIES" fill="#FFFFFF"></path>
            <path d="M72.4868164,28.9655172 L77.5092773,4.61324758 L82.9833984,3.86567214 L80.3637695,16.649212 C80.9900747,16.5993734 81.5832492,16.4249409 82.1433105,16.1259092 C82.7033719,15.8268775 83.2242814,15.443749 83.7060547,14.976512 C84.1878279,14.509275 84.6214173,13.9704031 85.0068359,13.3598801 C85.3922545,12.7493571 85.7204576,12.1045798 85.9914551,11.4255287 C86.2624525,10.7464776 86.4702141,10.0487475 86.6147461,9.33231748 C86.7592781,8.61588745 86.831543,7.91504249 86.831543,7.22976158 C86.831543,6.51956137 86.7442229,5.84986508 86.5695801,5.22065261 C86.3949373,4.59144015 86.1239439,4.03699391 85.7565918,3.55729728 C85.3892397,3.07760065 84.9134958,2.7007018 84.3293457,2.42658944 C83.7451956,2.15247708 83.049646,2.01542295 82.2426758,2.01542295 C80.7371344,2.01542295 79.3912006,2.22723387 78.204834,2.65086207 C77.0184674,3.07449026 76.0157919,3.68500409 75.1967773,4.48242188 C74.3777628,5.27983966 73.751467,6.25479286 73.3178711,7.40731075 C72.8842752,8.55982863 72.6674805,9.86495769 72.6674805,11.3227371 C72.6674805,11.8086635 72.6945798,12.2042516 72.7487793,12.5095131 C72.8029788,12.8147746 72.8601885,13.0577341 72.9204102,13.2383991 C72.9806318,13.4190641 73.0378415,13.5592331 73.092041,13.6589103 C73.1462405,13.7585875 73.1733398,13.8458038 73.1733398,13.9205617 C72.5349903,13.9205617 71.9689152,13.8551495 71.4750977,13.7243231 C70.9812801,13.5934968 70.5687679,13.3848007 70.2375488,13.0982287 C69.9063297,12.8116567 69.6534026,12.431643 69.4787598,11.9581762 C69.304117,11.4847094 69.2167969,10.8991145 69.2167969,10.2013739 C69.2167969,9.35411753 69.3944481,8.51933331 69.7497559,7.69699623 C70.1050636,6.87465914 70.5928517,6.09594252 71.2131348,5.36082301 C71.8334178,4.62570349 72.5620889,3.9466626 73.3991699,3.32367996 C74.2362509,2.70069732 75.1335401,2.16182542 76.0910645,1.70704809 C77.0485888,1.25227076 78.0482533,0.897175981 79.0900879,0.641753098 C80.1319225,0.386330215 81.1707305,0.25862069 82.206543,0.25862069 C83.7241287,0.25862069 85.030919,0.467316744 86.1269531,0.884715113 C87.2229873,1.30211348 88.1293096,1.85967458 88.8459473,2.55741514 C89.562585,3.2551557 90.0895165,4.05567638 90.4267578,4.95900121 C90.7639991,5.86232604 90.9326172,6.80613058 90.9326172,7.79044316 C90.9326172,9.01148913 90.6887231,10.2325168 90.2009277,11.4535628 C89.7131323,12.6746087 89.0085495,13.7741566 88.0871582,14.7522394 C87.1657669,15.7303221 86.0456609,16.5246131 84.7268066,17.135136 C83.4079524,17.745659 81.9174888,18.0509159 80.2553711,18.0509159 L80.0566406,18.0509159 L77.7983398,28.9655172 L72.4868164,28.9655172 Z M101.172631,4.74407328 C101.172631,5.16770147 101.094344,5.56328951 100.937767,5.93084927 C100.781191,6.29840903 100.567407,6.61612541 100.29641,6.88400795 C100.025413,7.15189048 99.7122646,7.3637014 99.3569568,7.51944706 C99.0016491,7.67519272 98.6192473,7.75306439 98.20974,7.75306439 C97.8002328,7.75306439 97.417831,7.67519272 97.0625232,7.51944706 C96.7072155,7.3637014 96.3970786,7.15189048 96.1321033,6.88400795 C95.867128,6.61612541 95.6593664,6.29840903 95.5088123,5.93084927 C95.3582582,5.56328951 95.2829822,5.16770147 95.2829822,4.74407328 C95.2829822,4.32044508 95.3582582,3.92485704 95.5088123,3.55729728 C95.6593664,3.18973752 95.867128,2.86579141 96.1321033,2.58544922 C96.3970786,2.30510703 96.7072155,2.08395151 97.0625232,1.92197602 C97.417831,1.76000054 97.8002328,1.67901401 98.20974,1.67901401 C98.6192473,1.67901401 99.0016491,1.76000054 99.3569568,1.92197602 C99.7122646,2.08395151 100.025413,2.30510703 100.29641,2.58544922 C100.567407,2.86579141 100.781191,3.18973752 100.937767,3.55729728 C101.094344,3.92485704 101.172631,4.32044508 101.172631,4.74407328 L101.172631,4.74407328 Z M103.467064,22.1065127 C103.117779,23.1406638 102.729355,24.0377454 102.301781,24.7977842 C101.874207,25.557823 101.428574,26.1994855 100.964867,26.7227909 C100.50116,27.2460964 100.025416,27.6697182 99.5376209,27.9936692 C99.0498255,28.3176202 98.5770926,28.5668095 98.119408,28.7412446 C97.6617234,28.9156798 97.225123,29.0340447 96.8095936,29.0963429 C96.3940641,29.1586412 96.0237065,29.1897899 95.6985096,29.1897899 C95.1444703,29.1897899 94.6265719,29.1025736 94.1447986,28.9281385 C93.6630254,28.7537033 93.2444912,28.4795951 92.8891834,28.1058055 C92.5338756,27.7320159 92.2538491,27.2585562 92.0490955,26.6854122 C91.8443419,26.1122681 91.7419666,25.4207678 91.7419666,24.6108904 C91.7419666,24.2620201 91.7660549,23.8788915 91.8142322,23.4614931 C91.8624096,23.0440948 91.9346745,22.5924391 92.0310291,22.1065127 L94.5422596,9.82758621 L99.8718494,9.82758621 L97.2160877,22.8353987 C97.155866,23.0472128 97.1167226,23.2559089 97.0986561,23.4614931 C97.0805896,23.6670774 97.0715564,23.8695437 97.0715564,24.0688982 C97.0715564,24.6046632 97.191998,24.9753324 97.4328846,25.1809166 C97.6737712,25.3865009 98.0531619,25.4892915 98.5710682,25.4892915 C98.9323981,25.4892915 99.2846895,25.4051901 99.6279529,25.2369848 C99.9712164,25.0687795 100.287375,24.8351645 100.576439,24.5361328 C100.865503,24.2371011 101.124452,23.8788915 101.353295,23.4614931 C101.582137,23.0440948 101.768821,22.5924391 101.913353,22.1065127 L103.467064,22.1065127 Z M123.968796,22.1065127 C123.45089,23.6764289 122.893848,24.9286052 122.297654,25.8630792 C121.70146,26.7975532 121.099252,27.5108576 120.491013,28.0030139 C119.882775,28.4951702 119.286589,28.8160014 118.702439,28.9655172 C118.118289,29.1150331 117.579313,29.1897899 117.085496,29.1897899 C116.266481,29.1897899 115.579965,29.0683101 115.025925,28.8253468 C114.471886,28.5823836 114.026253,28.2584375 113.689011,27.8534988 C113.35177,27.4485601 113.107876,26.9875598 112.957322,26.4704842 C112.806768,25.9534086 112.731492,25.4207665 112.731492,24.8725418 C112.731492,24.2246398 112.818812,23.4677273 112.993455,22.6017814 C113.168097,21.7358355 113.357793,20.8480986 113.562546,19.9385439 C113.7673,19.0289893 113.956995,18.1505969 114.131638,17.3033405 C114.306281,16.4560841 114.393601,15.7272054 114.393601,15.1166824 C114.393601,13.8084188 113.947968,13.1542969 113.056687,13.1542969 C112.719446,13.1542969 112.406298,13.2477429 112.117234,13.4346377 C111.82817,13.6215325 111.563199,13.8738366 111.322312,14.1915578 C111.081425,14.5092789 110.864631,14.8830629 110.671921,15.3129209 C110.479212,15.742779 110.310594,16.2006643 110.166062,16.6865908 L107.654832,28.9655172 L102.325242,28.9655172 L106.245652,9.82758621 L111.575242,9.82758621 L111.177781,11.8086611 C111.575244,11.3476539 111.96969,10.9769848 112.36113,10.6966426 C112.752571,10.4163005 113.134973,10.2013747 113.508347,10.0518588 C113.881722,9.902343 114.234013,9.80266728 114.565232,9.75282866 C114.896451,9.70299005 115.206588,9.67807112 115.495652,9.67807112 C116.085824,9.67807112 116.633833,9.75905765 117.139695,9.92103314 C117.645557,10.0830086 118.082157,10.3384277 118.449509,10.687298 C118.816861,11.0361682 119.10291,11.484709 119.307664,12.0329337 C119.512417,12.5811585 119.614793,13.2352804 119.614793,13.9953192 C119.614793,14.506165 119.569627,15.0574964 119.479295,15.6493299 C119.388962,16.2411634 119.277554,16.8454475 119.145066,17.4622003 C119.012578,18.0789531 118.87106,18.6925818 118.720505,19.3031048 C118.569951,19.9136278 118.428433,20.4992227 118.295945,21.0599071 C118.163457,21.6205914 118.052049,22.1407741 117.961716,22.6204708 C117.871384,23.1001674 117.826218,23.5206744 117.826218,23.8820043 C117.826218,24.3554711 117.931605,24.7417146 118.14238,25.0407462 C118.353156,25.3397779 118.74158,25.4892915 119.307664,25.4892915 C119.705127,25.4892915 120.054407,25.408305 120.355515,25.2463295 C120.656624,25.084354 120.927617,24.8538539 121.168504,24.5548222 C121.40939,24.2557905 121.629196,23.8975809 121.827927,23.4801825 C122.026659,23.0627841 122.222376,22.6048988 122.415086,22.1065127 L123.968796,22.1065127 Z M139.03254,22.8353987 C138.972319,23.0472128 138.927153,23.252794 138.897042,23.4521484 C138.866932,23.6515029 138.851876,23.8570841 138.851876,24.0688982 C138.851876,24.4551474 138.94823,24.7884381 139.140939,25.0687803 C139.333648,25.3491225 139.719061,25.4892915 140.297189,25.4892915 C140.513987,25.4892915 140.691638,25.4830618 140.830148,25.4706021 C140.968658,25.4581424 141.083077,25.4394532 141.17341,25.4145339 C141.263742,25.3896146 141.339018,25.3615808 141.39924,25.3304317 C141.459461,25.2992826 141.525704,25.2712488 141.59797,25.2463295 C141.549793,25.9316104 141.390208,26.5203201 141.11921,27.0124764 C140.848213,27.5046327 140.532054,27.9126802 140.170724,28.2366312 C139.809394,28.5605822 139.445059,28.8004269 139.077706,28.9561725 C138.710354,29.1119182 138.400217,29.1897899 138.147287,29.1897899 C136.605612,29.1897899 135.443352,28.812891 134.66047,28.059082 C133.877589,27.305273 133.486154,26.2306441 133.486154,24.835163 C133.486154,24.2370996 133.558419,23.5705182 133.702951,22.8353987 L134.01008,21.3402478 C134.070301,21.0910548 134.109445,20.8480952 134.127511,20.6113618 C134.145578,20.3746284 134.154611,20.150358 134.154611,19.9385439 C134.154611,19.3778595 134.058258,18.9293188 133.865548,18.5929081 C133.672839,18.2564975 133.323559,18.0882947 132.817697,18.0882947 C132.396145,18.0882947 131.965567,18.2160042 131.525949,18.4714271 C131.086331,18.72685 130.607576,19.0726002 130.089669,19.508688 L128.156564,28.9655172 L122.826974,28.9655172 L128.192697,2.93120286 L133.666818,2.16493804 L130.902658,15.6399852 L138.038888,9.82758621 L141.706369,9.82758621 L134.299142,15.1540612 C134.708649,15.0419243 135.11815,14.9858567 135.527658,14.9858567 C136.214184,14.9858567 136.813381,15.1042216 137.325265,15.340955 C137.837149,15.5776884 138.261705,15.9016345 138.598947,16.3128031 C138.936188,16.7239716 139.186104,17.2005462 139.348703,17.7425411 C139.511301,18.284536 139.592599,18.8607863 139.592599,19.4713093 C139.592599,19.7080427 139.583566,19.9478874 139.565499,20.1908506 C139.547433,20.4338138 139.508289,20.6798883 139.448068,20.9290814 L139.03254,22.8353987 Z" id="Pink" fill="#FF0058"></path>
        </g>
    </g>
</svg>