<?xml version="1.0" encoding="UTF-8" standalone="no"?>
<svg width="344px" height="313px" viewBox="0 0 344 313" version="1.1" xmlns="http://www.w3.org/2000/svg" xmlns:xlink="http://www.w3.org/1999/xlink">
    <!-- Generator: Sketch 41.2 (35397) - http://www.bohemiancoding.com/sketch -->
    <title>Page 1</title>
    <desc>Created with Sketch.</desc>
    <defs></defs>
    <g id="Page-1" stroke="none" stroke-width="1" fill="none" fill-rule="evenodd">
        <g id="Desktop-HD" transform="translate(-974.000000, -2090.000000)">
            <g id="Page-1" transform="translate(974.000000, 2090.000000)">
                <path d="M343.439145,156.467473 C343.439145,242.600732 266.699778,312.424632 172.035749,312.424632 C77.3717199,312.424632 0.632352941,242.600732 0.632352941,156.467473 C0.632352941,70.3342135 77.3717199,0.510312745 172.035749,0.510312745 C266.699778,0.510312745 343.439145,70.3342135 343.439145,156.467473" id="Fill-1" fill="#FF0058"></path>
                <path d="M148.163068,149.346623 C154.857409,140.471615 162.08689,130.621091 169.726303,119.833868 C164.418501,112.306525 158.939121,104.365684 153.312276,95.9995319 C152.813307,95.2577679 152.293007,94.3953302 151.774562,93.436691 C147.752207,86.0080809 143.77066,72.7626574 149.859376,64.4918625 L149.859376,64.4918625 C149.856594,64.4935503 132.84065,77.5043772 128.955558,99.3741782 C127.414135,108.0475 129.101168,116.938541 133.548295,124.736768 C136.836109,130.502105 141.732123,138.882603 148.163068,149.346623" id="Fill-5" fill="#FFFFFF"></path>
                <path d="M188.249572,166.686391 C183.721521,175.439229 178.291022,185.625922 172,196.904934 C181.149577,213.243064 192.062813,231.779371 204.635921,251.541151 L208.704843,226.377964 L227.422575,223.037817 C227.422575,223.037817 211.900872,204.001241 188.249572,166.686391" id="Fill-7" fill="#FFFFFF"></path>
                <path d="M194.848817,151.066773 C195.206813,150.487876 195.560172,149.914043 195.907966,149.34696 C202.339839,138.882097 207.234925,130.502442 210.522739,124.736261 C214.970794,116.938035 216.6569,108.046994 215.116404,99.3745158 C211.231311,77.5038709 194.214441,64.4938878 194.211658,64.4913562 L194.211658,64.4913562 C200.301302,72.7621511 196.319755,86.0075746 192.2974,93.4361846 C191.778027,94.3948238 191.258655,95.2581055 190.759686,95.9998694 C185.132841,104.366022 179.65346,112.306863 174.345658,119.834206 C173.961694,120.37766 173.576802,120.925333 173.195619,121.464567 C172.807017,122.013085 172.422125,122.554851 172.035378,123.099149 C164.376488,133.889747 157.09507,143.790904 150.286653,152.786585 C149.876719,153.328351 149.470496,153.863366 149.064272,154.397538 C148.653411,154.93846 148.244405,155.476007 147.837255,156.011022 C115.922739,197.867944 94.9781133,219.222139 94.9781133,219.222139 L120.235386,222.968933 L125.726823,251.19647 C142.691756,229.028782 157.417823,208.234918 169.764978,189.908538 C170.14616,189.3423 170.526415,188.776061 170.903888,188.214886 C171.283215,187.649491 171.660688,187.086629 172.035378,186.525453 C180.474255,173.908715 187.740833,162.537532 193.785031,152.786585 C194.143955,152.207688 194.498241,151.634699 194.848817,151.066773" id="Fill-9" fill="#FFFFFF"></path>
                <path d="M155.079626,91.5352773 C156.888156,90.6340214 158.732856,89.9167298 160.50707,89.3445842 C167.956356,86.9462984 176.115142,86.9462984 183.564428,89.3445842 C185.338642,89.9167298 187.183342,90.6340214 188.991872,91.5352773 C190.48043,88.7108359 192.050605,84.8416803 192.879746,80.6830763 C196.452287,64.4916937 186.763207,60.7221151 186.763207,60.7221151 C183.135019,59.4436482 178.209326,58.0596972 172.035285,58.0596972 C165.862172,58.0596972 160.936479,59.4436482 157.308291,60.7221151 C157.308291,60.7221151 147.619211,64.4916937 151.191752,80.6830763 C152.020893,84.8416803 153.591068,88.7108359 155.079626,91.5352773" id="Fill-11" fill="#FFFFFF"></path>
            </g>
        </g>
    </g>
</svg>