<?xml version="1.0" encoding="UTF-8" standalone="no"?>
<svg width="164px" height="188px" viewBox="0 0 164 188" version="1.1" xmlns="http://www.w3.org/2000/svg" xmlns:xlink="http://www.w3.org/1999/xlink">
    <!-- Generator: Sketch 41.2 (35397) - http://www.bohemiancoding.com/sketch -->
    <title>stopwatch</title>
    <desc>Created with Sketch.</desc>
    <defs></defs>
    <g id="Page-1" stroke="none" stroke-width="1" fill="none" fill-rule="evenodd">
        <g id="stopwatch" fill="#000000">
            <path d="M81.6349222,173.993743 C44.1324227,173.993743 13.7335301,143.541415 13.7335301,105.972993 C13.7335301,68.4045711 44.1437855,37.952243 81.6349222,37.952243 C119.126059,37.952243 149.536314,68.4045711 149.536314,105.972993 C149.536314,143.541415 119.126059,173.993743 81.6349222,173.993743 M143.548831,52.6478211 L150.979395,45.1928133 L153.18965,47.3952039 C155.241559,49.4510867 158.567938,49.4510867 160.597488,47.3952039 C162.661126,45.3507039 162.661126,42.0188445 160.597488,39.9629617 L149.479867,28.8144148 C147.427591,26.758532 144.101578,26.758532 142.060666,28.8144148 C140.008391,30.8813133 140.008391,34.2025242 142.060666,36.2580398 L144.518705,38.6980008 L137.212033,46.0171492 C124.481988,34.2363055 108.030797,26.4651492 89.8209312,24.668868 L89.8209312,17.8355086 L95.1090497,17.8355086 C100.025493,17.8355086 104.005419,13.8368367 104.005419,8.92350078 C104.005419,3.99841484 100.014131,0.00011015625 95.1090497,0.00011015625 L68.4085779,0.00011015625 C63.4925007,0.00011015625 59.5012119,3.99841484 59.5012119,8.92350078 C59.5012119,13.8482195 63.4925007,17.8355086 68.4085779,17.8355086 L74.2721692,17.8355086 L74.2721692,24.6350867 L73.9448462,24.6350867 C54.6749378,26.4761648 37.3557723,34.9930789 24.3324929,47.880993 L19.788457,52.7943289 C7.48690115,67.1282273 -0.000109962956,85.7203992 -0.000109962956,106.119868 C-0.000109962956,151.335337 36.6003268,188.00011 81.7364547,188.00011 C126.894942,188.00011 163.472653,151.335337 163.472653,106.119868 C163.484016,85.6528367 155.929561,66.9927352 143.548831,52.6478211" id="Fill-1"></path>
            <path d="M87.013357,99.8848773 L87.013357,57.0190414 L82.0745541,49.0896273 L76.459479,57.0190414 L76.459479,99.8848773 C73.3812494,101.703557 71.2952521,105.024401 71.2952521,108.864815 C71.2952521,114.636635 75.9745424,119.312768 81.7252384,119.312768 C87.4755679,119.312768 92.1662211,114.636635 92.1662211,108.864815 C92.1775839,105.024401 90.1029495,101.703557 87.013357,99.8848773" id="Fill-4"></path>
        </g>
    </g>
</svg>